HIERARCHY
ROOT Hips
{
   OFFSET 0.00000 0.00000 0.00000
   CHANNELS 6 Xposition Yposition Zposition Zrotation Xrotation Yrotation
   JOINT Spine
   {
      OFFSET 0.000000 10.701450 0.000000
      CHANNELS 3 Zrotation Xrotation Yrotation
      JOINT Spine1
      {
         OFFSET -0.000000 23.091659 0.114894
         CHANNELS 3 Zrotation Xrotation Yrotation
         JOINT HEad
         {
            OFFSET 0.000000 7.860744 0.010206
            CHANNELS 3 Zrotation Xrotation Yrotation
            End Site
            {
               OFFSET -0.261000 11.496780 2.262555
            }
         }
         JOINT LeftShoulder1
         {
            OFFSET 8.091000 -0.326025 -0.198000
            CHANNELS 3 Zrotation Xrotation Yrotation
            JOINT LeftArm
            {
               OFFSET 9.254430 -0.003042 0.289908
               CHANNELS 3 Zrotation Xrotation Yrotation
               JOINT LeftForeArm
               {
                  OFFSET 29.490208 0.089226 -1.281906
                  CHANNELS 3 Zrotation Xrotation Yrotation
                  JOINT LeftHand
                  {
                     OFFSET 24.807870 0.076824 0.919944
                     CHANNELS 3 Zrotation Xrotation Yrotation
                     End Site
                     {
                        OFFSET 15.069871 -0.540000 1.352619
                     }
                  }
               }
            }
         }
         JOINT RightShoulder
         {
            OFFSET -8.091000 -0.326025 -0.198000
            CHANNELS 3 Zrotation Xrotation Yrotation
            JOINT RightArm
            {
               OFFSET -9.254430 -0.003042 0.289908
               CHANNELS 3 Zrotation Xrotation Yrotation
               JOINT RightForeArm
               {
                  OFFSET -29.607386 0.089226 -1.281906
                  CHANNELS 3 Zrotation Xrotation Yrotation
                  JOINT RightHand
                  {
                     OFFSET -24.742889 0.076824 0.919944
                     CHANNELS 3 Zrotation Xrotation Yrotation
                     End Site
                     {
                        OFFSET -14.968080 -0.540000 1.352619
                     }
                  }
               }
            }
         }
      }
   }
   JOINT LeftUpLeg
   {
      OFFSET 8.051219 -7.800363 0.091485
      CHANNELS 3 Zrotation Xrotation Yrotation
      JOINT LeftLeg
      {
         OFFSET 0.000000 -39.980428 1.235430
         CHANNELS 3 Zrotation Xrotation Yrotation
         JOINT LeftFoot
         {
            OFFSET -0.228195 -37.883157 -1.314531
            CHANNELS 3 Zrotation Xrotation Yrotation
            JOINT LeftToes
            {
               OFFSET -0.036000 -3.973581 7.649189
               CHANNELS 3 Zrotation Xrotation Yrotation
               End Site
               {
                  OFFSET 0.072000 -0.042705 8.801811
               }
            }
         }
      }
   }
   JOINT RightUpLeg
   {
      OFFSET -8.051219 -7.800363 0.091485
      CHANNELS 3 Zrotation Xrotation Yrotation
      JOINT RightLeg
      {
         OFFSET 0.000000 -39.980428 1.235430
         CHANNELS 3 Zrotation Xrotation Yrotation
         JOINT RightFoot
         {
            OFFSET 0.228195 -37.883157 -1.314531
            CHANNELS 3 Zrotation Xrotation Yrotation
            JOINT RightToes
            {
               OFFSET 0.036000 -3.973581 7.649189
               CHANNELS 3 Zrotation Xrotation Yrotation
               End Site
               {
                  OFFSET -0.072000 -0.123705 8.801811
               }
            }
         }
      }
   }
}
MOTION
Frames: 16
Frame Time: 0.016670
6.955663 42.380442 -131.743935 3.737952 12.822680 -31.414465 -19.689335 37.213592 194.531861 1.289875 7.385682 -157.819744 -23.859632 -2.632902 9.116640 8.074610 -67.043866 44.281366 -56.285260 -20.148841 -23.495477 -26.447012 54.768394 -38.003890 -54.072849 -47.253066 -99.730379 178.078085 261.192308 156.321638 326.950418 -95.835019 603.353284 64.947777 173.362304 53.517705 -21.121153 -25.486332 28.937097 65.074149 -27.997413 -10.395316 -19.023902 33.851439 43.399650 -52.426258 -1.771017 76.876935 20.976708 -34.611232 -34.292795 55.429068 -74.228119 62.196768 -184.258491 116.318654 156.493936 -102.103610 103.847432 26.305039 44.634241 -75.269436 -78.188065
4.732205 43.476919 -129.642570 4.576364 11.921145 -30.650477 -14.726310 31.445108 193.962701 2.458731 5.675496 -158.163248 -24.672213 -7.224375 10.181532 16.611855 -68.304521 54.018716 -58.082665 -20.023967 -20.378783 -21.663709 68.089090 -41.905270 -53.267167 -37.304915 -99.841779 174.462976 260.931449 152.362683 319.295689 -97.149339 596.017169 65.601774 174.564650 52.797601 -19.966834 -27.269015 31.254454 64.822627 -24.289551 -20.444684 -26.172013 25.729406 57.361698 -53.579118 -0.608907 73.608266 11.552024 -34.227905 -43.762651 50.049762 -72.525230 56.479459 -181.686447 117.365531 158.868984 -100.146788 103.610903 27.236011 40.172003 -75.965050 -79.259182
2.439218 44.759521 -127.514713 6.095908 11.658398 -30.349341 -9.371467 26.219544 192.527091 4.008746 4.965192 -159.100487 -24.137591 -9.527499 10.761216 24.039295 -68.944974 67.437244 -57.269196 -23.602572 -19.115673 -20.727309 79.272145 -45.413993 -55.115764 -55.389610 -91.212621 170.482819 258.788682 149.102469 312.987190 -98.456753 588.733073 66.163257 176.454987 53.859248 -18.982545 -24.356571 32.459996 63.946280 -21.319481 -32.583605 -29.842715 16.744098 69.599887 -54.605149 0.642031 70.053699 29.027969 -24.700986 -26.469763 46.447055 -71.080276 49.497947 -174.532507 120.362345 165.150381 -99.401492 101.265013 28.794930 31.587818 -78.590609 -79.894861
-0.251236 46.652622 -125.090645 5.546790 14.099365 -30.395844 -7.378334 20.931752 194.059157 3.428654 3.124250 -158.993362 -23.312061 -9.867606 10.779754 30.751639 -66.582419 78.045723 -65.419750 -26.945982 -25.810855 -17.356861 88.749306 -46.153190 -50.109188 -37.724405 -98.027899 163.144997 260.452462 145.144662 308.527322 -100.457780 582.628141 67.078584 176.811454 51.667171 -16.209627 -22.851976 32.084622 64.996551 -18.299979 -43.436984 -30.702124 9.176040 78.694407 -54.449138 1.943915 67.999027 20.236872 -27.256695 -34.318986 44.188735 -67.850580 42.901812 -170.271070 119.667086 169.892281 -100.264657 99.612312 27.203385 23.668936 -81.354178 -83.559237
-2.971842 48.632282 -122.685936 5.561554 14.940899 -31.425984 -4.243379 17.265332 196.241525 4.652536 2.378959 -158.215772 -26.318158 -6.338918 11.038614 39.852716 -63.013215 89.962061 -67.485267 -28.433864 -26.353096 -19.807876 98.519666 -48.751049 -64.454344 -53.731937 -93.337021 160.129482 260.257774 142.267759 305.406800 -103.299221 578.990109 67.635764 175.683653 49.093118 -15.295319 -20.683741 32.397834 64.785874 -14.001708 -51.191554 -29.550885 2.749146 84.614576 -53.721835 2.816471 66.791621 28.105381 -9.687307 -22.862064 39.955405 -61.927802 37.576361 -166.436315 119.585138 175.363645 -100.804733 98.058109 25.003178 13.862689 -82.900847 -91.847753
-5.680081 50.823812 -120.065802 5.134359 14.905786 -31.833893 -2.340748 15.633318 197.006971 4.057713 0.729153 -159.753767 -28.361684 -2.368909 11.008970 49.606233 -59.272252 99.134192 -67.510847 -30.652222 -23.769921 -19.888993 105.622182 -46.785081 -59.503556 -47.115649 -100.383516 158.542173 261.932372 141.721986 304.343612 -105.016597 577.067602 65.642844 177.407347 51.175486 -17.464664 -22.999346 29.620215 63.713104 -9.385335 -55.496663 -27.577439 -1.992564 87.354759 -52.149724 3.300919 66.344489 23.417633 -15.818315 -27.554426 34.574838 -55.568797 30.857794 -163.658491 121.070212 180.692231 -100.388078 95.705464 21.211415 2.769460 -83.496331 -106.474064
-8.366345 53.222689 -117.283438 4.526488 12.963735 -29.201135 -3.509861 14.340619 198.089570 2.602134 -0.316874 -162.982671 -28.203823 1.314716 10.352391 60.577679 -56.110311 107.947677 -67.846557 -31.675098 -20.112312 -22.858630 108.566513 -46.536435 -67.150014 -55.521167 -103.456698 160.585493 263.447308 143.352352 304.522400 -105.407680 577.184316 64.831049 176.500612 51.189928 -19.023294 -23.566743 27.910048 61.923096 -5.625029 -56.146358 -26.116434 -5.242669 86.516845 -55.413970 2.857994 64.197809 19.800986 -3.931336 -20.245709 28.797976 -45.298720 22.577091 -159.745967 119.897591 188.196109 -98.692654 89.250997 17.806245 -143.374222 -88.424694 -246.698619
-10.891541 55.789575 -114.284552 3.941165 8.785508 -23.748506 -5.382336 15.016873 198.578324 2.508077 -1.642910 -167.914122 -26.385502 2.136912 9.269750 72.319832 -52.507465 115.381320 -67.486729 -31.023242 -15.426768 -24.787018 110.761080 -44.629040 -65.938824 -50.743128 -107.992210 164.989011 264.464788 148.290551 303.595871 -104.499347 576.806197 64.551148 176.497744 51.926902 -18.642928 -23.716399 26.544362 59.519867 -3.320401 -53.940709 -25.321600 -7.952280 82.448067 -55.293892 2.607633 61.766603 25.969271 -13.943382 -28.202531 19.806323 -33.471964 17.670345 -153.151228 124.045265 198.690039 -92.914697 78.969274 13.727628 -57.890798 -84.827452 -169.658552
-13.317362 58.474964 -111.273878 4.334114 3.120549 -15.588892 -8.409793 17.930464 198.333790 2.885487 -1.782250 -172.570713 -25.158064 2.315123 7.820584 86.038397 -46.039539 122.927750 -66.835457 -28.585131 -10.817693 -26.745508 112.965414 -42.968088 -72.820287 -53.939343 -109.475768 174.280336 265.651137 155.393565 303.665293 -100.390476 579.391888 65.829172 173.585064 54.211024 -20.290018 -24.471470 26.217027 54.993231 -3.395018 -52.872081 -25.575476 -6.437236 75.113810 -60.228526 2.894725 58.587478 15.021567 -10.109010 -23.493114 7.509650 -21.799379 15.345311 -138.545907 129.161882 208.080128 -80.420669 63.608507 8.925139 -176.459003 -81.173342 -271.380573
-15.601989 61.163105 -108.398445 8.780027 -5.123153 -9.595743 -8.949384 21.815833 199.714144 1.636061 -0.772734 -174.453850 -24.117010 1.992090 5.743949 103.925433 -50.124077 134.517775 -43.998774 -23.660991 9.322675 -33.236356 109.516954 -44.989363 -73.038293 -49.063537 -114.602433 181.739559 265.723018 165.835326 302.890230 -94.355389 584.002430 63.925332 175.617838 56.117968 -19.874052 -24.123383 24.689310 45.652052 -1.761638 -50.938058 -29.979640 -2.660628 70.147784 -59.727668 3.358995 55.801416 25.640633 -15.148762 -30.183449 -7.546594 -15.868039 7.485765 -117.206415 121.669821 204.457396 -64.167203 52.498442 7.776620 -288.837225 -76.374772 -369.390782
-18.229931 64.047092 -105.639466 14.238054 -11.022679 -7.525091 -18.006581 27.282590 201.412880 3.007996 1.854368 -176.916229 -24.451864 0.179790 4.011170 115.642698 -41.402872 142.474427 -42.919188 -18.346429 11.436617 -34.966132 108.717733 -42.833820 -78.083597 -48.092130 -118.799447 190.833108 268.356247 174.596110 305.417100 -89.314306 584.882103 64.262531 176.554188 61.297540 -21.067150 -24.420621 24.056469 34.543368 -0.858774 -48.021312 -38.110837 0.551350 69.761182 -59.602089 3.202070 52.624135 13.678408 -17.881881 -31.513520 -8.062622 -11.564108 -16.745903 -43.767449 62.502303 173.550517 -50.051910 46.653792 4.200215 -331.794580 -59.856711 -421.756258
-20.820779 67.086286 -103.018711 13.499201 -9.141930 4.406275 -20.410571 29.795153 195.333766 -0.345795 1.763048 -185.205115 -24.326909 -2.039755 2.333791 128.735583 -34.712507 146.566939 -41.664151 -12.258173 11.047981 -33.059550 105.744326 -36.544910 -79.745197 -43.509333 -122.452820 198.979338 273.729530 182.351475 311.972060 -83.514287 587.595601 65.366618 177.770577 67.698171 -20.849076 -23.952165 21.631376 31.019840 -6.789226 -45.858191 -37.723992 3.883665 64.539550 -59.765699 1.236603 48.251028 10.429207 -22.557845 -36.702944 -11.582254 5.561888 -15.827174 2.109644 46.878870 134.947326 -56.801865 43.212227 4.956153 -312.990331 -53.978947 -422.262648
-23.305606 70.238398 -100.634201 14.878700 -9.081095 18.516021 -19.481069 36.173706 189.059008 -0.925061 1.123398 -191.434684 -23.101360 -3.333451 0.509242 138.783611 -27.036334 151.441932 -40.451273 -5.770788 13.570951 -33.608810 103.920112 -33.978723 -84.178072 -42.282699 -125.022883 207.809025 278.769035 190.071256 315.942448 -77.906661 590.059878 64.894502 178.513223 71.816973 -22.357431 -24.502610 20.332295 24.376395 -12.089531 -44.024664 -39.733092 6.095045 60.103677 -60.406910 0.477968 43.042838 5.909805 -19.809420 -43.937077 -8.995730 10.803778 -9.732716 13.037055 41.477287 121.553516 -63.361602 42.027377 9.821880 -303.830638 -44.305678 -428.661771
-25.608403 73.144459 -98.581437 16.623835 -9.781227 27.271501 -17.134223 39.626514 185.582687 -1.713283 0.366235 -195.220562 -21.405278 -5.108796 -1.272488 146.826364 -19.493763 156.120912 -39.062890 -0.344581 17.111782 -33.471021 102.368027 -32.036493 -86.260132 -41.159396 -126.566288 215.198005 284.082785 197.371608 319.086904 -72.138061 591.703003 64.832060 179.310839 76.236379 -23.881053 -25.398434 19.902049 18.840612 -13.596881 -38.830705 -40.199819 11.666800 50.070460 -60.184075 1.024127 41.523626 16.693691 -21.598045 -40.805736 -6.094564 12.776904 -10.829324 9.429704 40.054463 117.291355 -47.545732 42.177815 11.478834 -312.159726 -35.996972 -432.713521
-27.920317 75.570940 -96.901721 17.700922 -9.504181 33.863846 -15.952609 41.954109 184.485445 -2.209923 0.372704 -197.689088 -20.289376 -6.072135 -2.890951 153.017985 -11.803984 160.493313 -36.913228 4.832078 21.565006 -34.025117 103.001971 -31.859960 -89.375641 -41.101831 -128.637679 221.328291 289.703922 203.647623 321.376848 -66.096287 593.841618 64.508521 179.905011 79.573835 -25.458123 -26.388591 20.034949 14.648572 -14.386127 -30.809583 -34.699926 19.266697 31.854080 -58.949034 3.170294 43.066163 13.575789 -19.988719 -40.283650 -4.261477 16.011768 -15.115878 3.743214 39.475365 112.450165 -54.085679 44.809039 13.168291 -298.062161 -45.600136 -429.294164
-30.154843 77.658371 -95.492667 17.686548 -9.180254 37.841355 -14.430861 43.538156 185.061039 -2.909559 1.062197 -199.447206 -19.960675 -5.815928 -4.329315 158.428178 -5.045794 163.326489 -35.141723 9.837417 26.952032 -34.006364 104.269477 -31.480390 -90.583294 -40.076439 -131.304745 224.441082 295.540045 208.827064 323.849677 -60.646978 595.444089 64.114146 180.353891 81.541155 -26.679851 -27.334159 20.320795 11.852839 -14.461973 -22.986518 -25.775093 24.441504 13.495603 -58.277933 4.622827 44.734717 12.473996 -19.228016 -37.230262 -3.541327 17.414406 -19.328979 -3.567570 37.287167 104.331474 -46.274207 47.735854 13.969692 -312.208985 -38.393876 -429.323561
